<svg width="52" height="52" fill="none" xmlns="http://www.w3.org/2000/svg"><path d="M31.787 41.193 13.21 19.45 25.952 3.343a7.594 7.594 0 0 1 5.883-2.8h.24v-.54H20.536v.53h.528c1.5 0 2.244 1.492 1.315 2.827L9.498 21.056l18.098 21.126c9.7 11.32 17.888 10.184 21.505 9.286v-.598c-6.717 0-12.952-4.554-17.314-9.676v-.001Zm7.227-6.293L25.082 18.592l9.556-12.08a5.696 5.696 0 0 1 4.413-2.1h.18v-.404h-8.654v.397h.396c1.126 0 1.683 1.12.987 2.12l-9.662 13.272L35.87 35.642c7.275 8.49 13.416 7.638 16.129 6.964v-.449c-5.038 0-9.714-3.414-12.986-7.256ZM11.24 41.291c-1.912 0-3.463-1.678-3.499-3.762V4.319C7.795 2.252 9.338.594 11.24.594l.691.001.009-.593L7.582 0v.003H4.357V0H0l.01.598L.7.594c1.904 0 3.45 1.665 3.498 3.739v33.195C4.162 39.612 2.61 41.291.7 41.291H.009L0 41.881h11.94l-.009-.592-.691.001Z" fill="#fff"/></svg>